<svg xmlns="http://www.w3.org/2000/svg" viewBox="0 0 650 500"><defs><linearGradient id="a" x1="0" y1="0" x2="1" y2="1"><stop stop-color="#23384c"/><stop offset=".55" stop-color="#111c28"/><stop offset="1" stop-color="#081018"/></linearGradient><linearGradient id="b" x1="0" y1="0" x2="1" y2="1"><stop stop-color="#58d6ff"/><stop offset="1" stop-color="#8b7cff"/></linearGradient><filter id="s"><feDropShadow dx="0" dy="24" stdDeviation="18" flood-opacity=".35"/></filter></defs><ellipse cx="330" cy="445" rx="220" ry="22" fill="#02060a" opacity=".6"/><g filter="url(#s)"><path d="M145 105h360l45 75H100z" fill="url(#a)" stroke="#3a5268" stroke-width="3"/><path d="M205 180h240l28 190H177z" fill="#0e1823" stroke="#496178" stroke-width="3"/><rect x="222" y="207" width="206" height="105" rx="9" fill="#050b12" stroke="#29465b"/><path d="M240 224h170v72H240z" fill="url(#a)"/><circle cx="282" cy="260" r="18" fill="#58d6ff" opacity=".18"/><circle cx="282" cy="260" r="7" fill="#58d6ff"/><circle cx="329" cy="260" r="18" fill="#8b7cff" opacity=".18"/><circle cx="329" cy="260" r="7" fill="#8b7cff"/><circle cx="376" cy="260" r="18" fill="#4fe1a1" opacity=".18"/><circle cx="376" cy="260" r="7" fill="#4fe1a1"/><path d="M270 367h160l25 42H245z" fill="#172532" stroke="#40586c"/><path d="M295 383h110" stroke="url(#b)" stroke-width="7" stroke-linecap="round"/></g><path d="M290 78c-12-28 18-39 7-62M345 78c-10-28 21-39 9-62M400 78c-11-25 17-37 8-58" stroke="#58d6ff" stroke-width="6" stroke-linecap="round" opacity=".55"/></svg>